<svg width="20" height="20" viewBox="0 0 20 20" fill="none" xmlns="http://www.w3.org/2000/svg">
<g clip-path="url(#clip0_70_7288)">
<path d="M4.91953 5.79688C2.36016 8.35625 2.36016 12.5188 4.91953 15.0781C6.20391 16.3625 7.88203 17 9.56016 17C11.2383 17 12.9164 16.3625 14.2008 15.0781C17.4633 11.8156 17.9977 2 17.9977 2C17.9977 2 8.18203 2.53438 4.91953 5.79688ZM12.8789 13.7563C11.9883 14.6375 10.8164 15.125 9.56016 15.125C8.72578 15.125 7.93828 14.8906 7.23516 14.4875C8.09766 11.7875 9.69141 9.41563 11.8102 7.625C9.34453 8.9 7.27266 10.8687 5.83828 13.25C4.45078 11.4125 4.57266 8.79688 6.25078 7.11875C7.88203 5.4875 12.4102 4.48437 15.9352 4.0625C15.5133 7.5875 14.5102 12.1156 12.8789 13.7563Z" fill="#B2131E"/>
</g>
<defs>
<clipPath id="clip0_70_7288">
<rect width="20" height="20" fill="white"/>
</clipPath>
</defs>
</svg>
