<svg width="18" height="18" viewBox="0 0 18 18" fill="none" xmlns="http://www.w3.org/2000/svg">
    <path fill-rule="evenodd" clip-rule="evenodd"
        d="M4 5.875C4 5.44431 4.05312 5.02715 4.15323 4.62967C2.69468 4.71488 1.5 5.96111 1.5 7.43753C1.5 8.96735 2.78268 10.25 4.3125 10.25C4.48428 10.25 4.64848 10.3207 4.76653 10.4455C4.88458 10.5703 4.94607 10.7382 4.93654 10.9097L4.66069 15.875H13.3393L13.0635 10.9097C13.0539 10.7382 13.1154 10.5703 13.2335 10.4455C13.3515 10.3207 13.5157 10.25 13.6875 10.25C15.2173 10.25 16.5 8.96735 16.5 7.43753C16.5 5.96111 15.3053 4.71489 13.8468 4.62967C13.9469 5.02716 14 5.44431 14 5.875C14 6.22018 13.7202 6.5 13.375 6.5C13.0298 6.5 12.75 6.22018 12.75 5.875C12.75 3.78268 11.0923 2.125 9 2.125C6.90768 2.125 5.25 3.78268 5.25 5.875C5.25 6.22018 4.97018 6.5 4.625 6.5C4.27982 6.5 4 6.22018 4 5.875ZM4.35157 3.37498C4.43748 3.37482 4.54251 3.37463 4.65581 3.38031C5.51345 1.87751 7.12892 0.875 9 0.875C10.8711 0.875 12.4865 1.87751 13.3442 3.38031C13.4575 3.37463 13.5625 3.37482 13.6484 3.37498L13.6875 3.37503C15.9077 3.37503 17.75 5.21735 17.75 7.43753C17.75 9.43416 16.26 11.1252 14.3452 11.4455L14.624 16.4654C14.6336 16.6369 14.5721 16.8047 14.454 16.9295C14.336 17.0543 14.1718 17.125 14 17.125H4C3.82822 17.125 3.66402 17.0543 3.54597 16.9295C3.42792 16.8047 3.36643 16.6369 3.37596 16.4654L3.65484 11.4455C1.74 11.1252 0.25 9.43416 0.25 7.43753C0.25 5.21735 2.09232 3.37503 4.3125 3.37503L4.35157 3.37498ZM9.625 12.125C9.625 11.7798 9.34518 11.5 9 11.5C8.65482 11.5 8.375 11.7798 8.375 12.125V14C8.375 14.3452 8.65482 14.625 9 14.625C9.34518 14.625 9.625 14.3452 9.625 14V12.125ZM6.92642 11.5105C7.26582 11.5733 7.49002 11.8994 7.42716 12.2388L7.11466 13.9263C7.05181 14.2657 6.72571 14.4899 6.3863 14.4271C6.0469 14.3642 5.82271 14.0381 5.88556 13.6987L6.19806 12.0112C6.26091 11.6718 6.58701 11.4476 6.92642 11.5105ZM11.8022 12.0112C11.7393 11.6718 11.4132 11.4476 11.0738 11.5105C10.7344 11.5733 10.5102 11.8994 10.5731 12.2388L10.8856 13.9263C10.9484 14.2657 11.2745 14.4899 11.6139 14.4271C11.9533 14.3642 12.1775 14.0381 12.1147 13.6987L11.8022 12.0112Z"
        fill="#AD1519" />
</svg>